<svg width="1308" height="187" viewBox="0 0 1308 187" fill="none" xmlns="http://www.w3.org/2000/svg">
<path fill-rule="evenodd" clip-rule="evenodd" d="M73 2L72 3H70L69 4H67L66 5H63L62 6H60L59 7H58L55 9H53L51 11H50L49 12H48L47 13H46L44 15H42V16L41 17H40L38 19H37L34 22H32L31 23V24L23 32H22L23 33L20 36H19L20 37L17 40H16L17 41L15 43V44L14 45H13L14 46L13 47V48L10 51L11 52L10 53V54L8 57V59L7 60V61L6 62V64L5 65V67L4 68H3L4 69V72L3 73V75L2 76V81L1 82L0 81V85L1 86V103L0 104V105H1L2 106V111L3 112V114L4 115V118L3 119H4L5 120V122L7 125V127L8 128V130L9 131V132L11 135V137L13 139V140L14 141V142L16 144V145L17 146L16 147H17L20 150V151L26 157V158H27L29 160V161H30L34 165H35L36 166V167H37L39 169H40L41 170V171H43L45 173H46L47 174H48L49 175H50L51 176H52L53 177H54L55 178H56L59 180H62L65 182H67L69 184L70 183H72L73 184H76L77 185H81L82 186H113L114 185H118L119 184H122L123 183H127L128 182H130L133 180H135L136 179H138L140 177H142L143 176H144L146 174H148L150 172H151L153 170H154L156 168H157L160 165H161L167 159V158L168 157V156L169 155V154L170 153H171L170 152V147L169 146V144L167 142V141L164 138H163L161 136H159L158 135H149L148 136H147L145 138H144L140 142H139L138 143H137V144L136 145H135L132 148L131 147V148L130 149H129L127 151H125L124 152H123L122 153H120L119 154H118L117 153H116L114 155H112L111 156H107L106 157H91L90 156H86L85 155H83L81 153H80L79 152H78L77 153H75L72 151H70L69 150H68L66 148H65L64 147H63L61 145H60L57 142H56L48 134V133L45 130V129L43 127V126L42 125V124L40 122V120L39 119V118L37 115V113L36 112V110L35 109V106L34 105V96L33 95V91L34 90V80L35 79V77L36 76V74L37 73V70L38 69V68L39 67V66L40 65V64L41 63V62L43 60V59L44 58V57L46 55V54L47 53H48V52L56 44H57L60 41H61L62 40H63L65 38H66L67 37H68L71 35H73L74 34H76L79 32H82L83 31H89L90 30H106L107 31H112L113 32H117L120 34H122L123 35H125L126 36H127L128 37H129L130 38H131L132 39L133 40V41H134L135 42L136 41L139 44H140L141 45V46L142 47H143L146 50H148L149 51H151L152 52H156L157 51H159L160 50H162L163 49H164V48L167 46V45L168 44V43L169 42V41L170 40H171V39L170 38V33L169 32V31L168 30V29L167 28V27L163 23H162L157 18H156L154 16H153L152 15H151L148 12H146L145 11H144L142 9H140L139 8H137L135 6H133L132 5H130L129 4H127L126 3H123L122 2H116L115 1H110L109 0H87L86 1H80L79 2H73ZM77 153L78 152H79L80 153L79 154H78L77 153ZM31 23L32 22L33 23L32 24L31 23Z" fill="#041443"/>
<path fill-rule="evenodd" clip-rule="evenodd" d="M363 4H362L359 2H357L356 1H353L352 0H351L350 1H347L346 2H344L343 3H342V4L339 6V7L337 9V10L336 11V77L335 78H237L236 77V15L235 14V10L234 9V8L232 6V5H231L229 3V2H226L225 1H216L215 2H213L212 3H211L209 5L206 8H205L206 9V10L204 13V173L205 174V176L206 177V178L209 181V182H210L211 183H212L215 185H217L218 186H223L224 185H226L227 184H228L230 182H231L232 181V180L235 177V172L236 171V110L237 109H240L241 108H331L332 109H333L334 108H335L336 109V175L337 176V177L338 178V179L342 183H343L346 185H348L349 186H354L355 185H357L358 184H359L360 183H361L365 179V178L366 177V175L367 174V25L368 24L367 23V12L366 11V9L365 8V7L363 5V4Z" fill="#041443"/>
<path fill-rule="evenodd" clip-rule="evenodd" d="M477 2L474 5H472V6L470 8V9L469 10V11L468 12V13L467 14V15L466 16V18L465 19V20L464 21V22L463 23V24L462 25V26L461 27V28L460 29H459L460 30V31L459 32V33L458 34V35L457 36H456L457 37V38L456 39V40L454 43V45L453 46V47L452 48V49L449 51L450 52V54L448 56V58L447 59V60L445 63V65L444 66V67L443 68V69L442 70V71L441 72H440L441 73V74L440 75V76L438 79V81L437 82V83L435 86V88L433 90V92L432 93V94L431 95V96L429 99V101L428 102V103L426 106V108L425 109V110L423 113V115L421 117V118L420 119V121L419 122V123L418 124V125L417 126V128L415 131V132L413 135V137L411 139V141L410 142V144L408 146V147L407 148V150L406 151V152L404 155V157L403 158V159L401 161V164L400 165V167L399 168L398 167V169L399 170V171L400 172V174L401 175V178L406 183H407L410 185H412L413 186H417L418 185H421L423 183H424L425 182H426L428 180V179L430 177V175L431 174V173L432 172V171L434 168V166L435 165V164L437 161V159L438 158V157L439 156V155L441 152V150L442 149V148L443 147V146L444 145V144L445 143V142L446 141H447L446 140V139L447 138V137L448 136V135L449 134H450L449 133V132L450 131V130L452 127V125L453 124V123L455 120V118L456 117V116L458 114V112L459 111V110L460 109V108L461 107V105L462 104V103L464 100V98L465 97V96L466 95V94L467 93V92L468 91H469L468 90V89L469 88V87L471 84V82L472 81V80L473 79V78L476 76V75L475 74V73L476 72V71L477 70V69L478 68V67L480 64V62L481 61V60L483 57V55L484 54V53L485 52H486L488 55V57L486 59H487V58L488 57L489 58V59L490 60V61L492 64V66L493 67V68L494 69V70L495 71V72L497 75V77L498 78V79L499 80V81L501 84V86L502 87V88L503 89V90L504 91V92L506 95V97L507 98V99L508 100V101L510 104V106L511 107V108L512 109V110L514 113V115L515 116V117L516 118V119L517 120V121L519 124V126L520 127V128L522 131V133L523 134V135L525 138V140L526 141V142L528 145V147L529 148V149L531 152V153L530 154L533 157V158L534 159V162L535 163V164L537 167V169L538 170V171L539 172V173L541 176V178L546 183V184L547 183L548 184H549L550 185H552L553 186H558L559 185H561L562 184H563L564 183H565L569 179V178L571 175V173L572 172V167L571 166V165L570 164V162L568 159V157L567 156V155L566 154V153L565 152V151L563 148V146L562 145V144L560 141V139L559 138V137L558 136V135L557 134V133L555 130V128L554 127V126L553 125V124L551 121V119L550 118V117L548 114V112L547 111V110L546 109V108L544 105V103L543 102V101L542 100V99L541 98V97L539 94V92L538 91V90L536 87V85L535 84V83L533 80V78L532 77V76L531 75V74L530 73V72L529 71V70L527 67V65L526 64V62L524 60V58L523 57V55L521 53V52L520 51V49L519 48V47L517 44V42L516 41V40L514 37V35L513 34V33L511 30V28L510 27V26L508 23V21L507 20V19L505 17V14L504 13V12L502 10V9L500 7V6H499L496 3H495L494 2H492L491 1H489L488 0H484L483 1H481L480 2H477ZM474 75L475 74L476 75V76L475 77L474 76V75ZM449 51L450 50L451 51L450 52L449 51Z" fill="#041444"/>
<path fill-rule="evenodd" clip-rule="evenodd" d="M612 3L608 7V8L606 10V14L605 15V171L606 172V176L607 177V178L612 183H613L615 185H617L618 186H620L621 187H678L679 186H681L682 187H685L686 186H692L693 187H697L698 186H705L706 185H710L711 184H713L714 183H718L721 181H722L723 180H725L726 179H727L729 177H730L731 176H732L735 173H736L743 166V165L746 162V161L747 160V159L749 157V156L750 155V153L752 150V148L753 147V143L754 142V137L755 136V129L754 128V123L753 122V118L752 117V115L750 112V110L749 109V108L747 106V105L746 104V103L744 101L745 100L744 99H743L742 98H741L739 95H738L735 92H734L731 90L740 81H741L742 80L741 79V78L743 76V74L744 73V72L746 69V66L747 65V61L748 60V47L747 46V42L746 41V37L745 36V34L744 33V32L743 31V30L742 29V28L741 27V26L740 25V24L738 22V21L734 17V16L731 14V13L730 12V11L729 12L727 10H726L725 9H724L723 8H722L720 6H719L718 5H716L713 3H711L710 2H705L704 1H700L699 0H620L619 1H617L616 2H614L613 3H612ZM636 107L637 106H640L641 107H642L643 106H703L704 107H706L709 109H711L714 112H715L719 116V117L721 119V121L723 124V126L722 127V129H723L724 130V133L723 134V139L722 140V141L719 143L720 144V145L713 152H712L710 154L709 153H708V154L707 155H705L704 156H702L701 157H637L636 156V107ZM743 100L744 99L745 100L744 101L743 100ZM740 80L741 79L742 80L741 81L740 80ZM636 31L637 30H697L698 31H701L702 32L701 33H702L703 32H704L706 34H707L714 41V43L716 45V47L717 48V51L716 52V57L717 58V61L715 64V66L714 67V68L710 72L709 73H707V74L706 75H705L702 77H699L698 78H637L636 77V31Z" fill="url(#paint0_linear_135_50)"/>
<path fill-rule="evenodd" clip-rule="evenodd" d="M852 1L851 2H850L847 4H845L844 5H841L840 6H839L836 8H835L834 7V8L833 9H832L831 10H830L829 11H828L827 12H826L825 13H824L822 15H820L817 18H816L812 22H811L810 23H809V24L801 32V33L797 37V38L794 41V42L792 44V45L791 46V47L789 49V50L788 51V53L787 54V55L785 58V60L784 61V62L782 65V69L781 70V72L780 73V76L779 77V84L778 85V103L779 104V110L780 111V114L781 115V117L782 118V121L783 122V124L785 127V129L786 130V131L788 134V136L789 137V138L791 140V141L792 142V143L794 145V146L796 148V149L801 154V155L810 164H811L814 167H815L819 171H820L821 172H822L824 174H825L826 175H827L828 176H829L830 177H831L834 179H836L837 180H839L840 181H841L842 182H844L845 183H849L850 184H853L854 185H858L859 186H888L889 185H892L893 184H896L897 183H901L902 182H904L905 181H906L907 180H909L910 179H911L914 177H916L917 176H918L920 174H921L923 172H924L926 170H927L928 169H929L934 164H935L947 152V151L950 148V147L952 145V144L954 142V141L955 140V139L956 138V137L957 136V135L958 134V133L960 130V128L962 125V123L963 122V119L964 118V116L965 115V112L966 111V106L967 105V82L966 81V75L965 74V71L964 70V68L963 67V64L962 63V62L960 59V57L959 56V55L957 52V50L955 48V47L954 46V45L952 43V42L951 41V40L948 37V36L944 32V31L940 27H939L938 26V25L935 23V22H934L931 19H930L928 17H927L925 15H924L922 13H921L920 12H919L918 11H917L914 8H911L908 6H906L905 5H902L901 4H900L899 3H897L896 2H890L889 1H884L883 0H864L863 1H857L856 2H853L852 1ZM866 30H881L882 31H887L888 32H891L894 34H896L897 35H899L900 36H901L902 37H903L904 38H905L907 40H908L911 43H912L916 47H917L918 48V49L923 54V55L925 57V58L928 61V63L929 64V65L931 68V70L932 71V72L933 73V75L934 76V81L935 82V88L936 89V97L935 98V104L934 105V110L932 113V115L931 116V118L930 119V120L929 121V122L928 123V124L927 125V126L925 128V129L922 132V133L919 136V137L917 139H916V140L914 142H913L910 145H909L906 148H905L904 149H903L900 151H898L896 153H894L893 154H889L888 155H886L885 156H881L880 157H867L866 156H861L860 155H857L856 154H853L852 153H851L848 151H846L845 150H844L842 148H840L837 145H836L835 144H834L833 143V142H832L824 134V133L821 130V129L819 127V126L818 125V124L817 123V122L816 121V120L815 119V118L813 115V113L812 112V109L811 108V104L810 103V83L811 82V78L812 77V74L814 71V69L815 68V66L816 65V64L818 62V61L819 60V59L821 57V56L825 52V51L826 50H827V49L829 47H830L835 42H836L838 40H839L841 38H842L843 37H845L847 35H849L850 34H852L855 32H858L859 31H865L866 30Z" fill="url(#paint1_linear_135_50)"/>
<path fill-rule="evenodd" clip-rule="evenodd" d="M1105 2H1103L1102 1H1099L1098 0H1095L1094 1H1092L1091 2H1089L1087 4H1086V5L1085 6H1084L1083 7V9L1082 10V12L1081 13V123L1080 124V129L1079 130V133L1078 134V135L1077 136V138L1076 139V140L1074 142V143L1066 151H1064L1062 153H1061L1060 154H1058L1057 155H1055L1054 156H1050L1049 157H1039L1038 156H1034L1033 155H1031L1029 153L1028 154H1027L1026 153H1025L1024 152H1023L1022 151H1021L1018 148H1017L1016 147V146L1014 143H1013L1008 138H1007L1005 136H1004L1003 135H995L994 136H992L990 138H989L986 141V142L984 144V148L983 149V151L984 152V156L985 157V158L987 160V161L996 170H997L1001 174H1002L1004 176H1005L1006 177H1007L1008 178H1009L1011 180H1014L1015 181H1016L1017 182H1019L1020 183H1024L1025 184H1027L1028 185H1034L1035 186H1053L1054 185H1059L1060 184H1063L1064 183H1068L1071 181H1073L1074 180H1076L1077 179H1078L1079 178H1080L1081 177H1082L1084 175H1085L1088 172H1089L1098 163V162L1101 159V158L1103 156V155L1104 154V153L1106 150V148L1107 147V146L1109 143V140L1110 139V137L1111 136V131L1112 130V43L1113 42V37L1112 36V11L1111 10V9L1110 8V7L1105 2ZM1013 144L1014 143L1015 144L1014 145L1013 144Z" fill="url(#paint2_linear_135_50)"/>
<path fill-rule="evenodd" clip-rule="evenodd" d="M1231 2H1229L1228 1H1225L1224 0H1221L1220 1H1217L1216 2H1214L1213 3H1212L1211 4H1210L1205 9V10L1203 13V15L1202 16V17L1201 18V19L1200 20V21L1198 24V26L1197 27V28L1196 29V30L1194 33V35L1193 36V37L1191 40V42L1190 43V44L1188 47V49L1186 51V52L1185 53V55L1184 56V57L1182 60V62L1181 63V64L1179 67V69L1177 71V73L1176 74V75L1175 76V77L1173 80V82L1172 83V84L1171 85V86L1169 89V91L1167 93V95L1166 96V97L1165 98V99L1163 102V104L1162 105V106L1161 107V108L1159 111V113L1158 114V115L1157 116V117L1156 118V119L1154 122V124L1153 125V126L1152 127V128L1151 129V130L1150 131V132L1148 135V137L1147 138V139L1145 142V144L1143 146V147L1142 148V150L1141 151V152L1139 155V157L1138 158V159L1137 160V161L1135 164V175L1136 176V177L1137 178V179L1141 183H1142L1145 185H1147L1148 186H1153L1154 185H1156L1157 184H1158L1159 183H1160L1164 179V178L1165 177V176L1166 175V174L1167 173V172L1168 171V170L1170 167V165L1171 164V163L1172 162V161L1174 158V156L1175 155V154L1177 151V149L1178 148V147L1180 144V142L1181 141V140L1183 137V135L1184 134V133L1185 132V131L1186 130V129L1187 128V127L1189 124V122L1190 121V120L1192 117V115L1193 114V113L1194 112V111L1196 108V106L1197 105V104L1198 103V102L1199 101V100L1200 99V98L1202 95V93L1203 92V91L1205 88V86L1206 85V84L1208 81V79L1209 78V77L1210 76V75L1211 74V73L1212 72V71L1214 68V66L1216 64V63L1217 62V60L1218 59V58L1219 57V56L1220 55V54L1222 51L1224 53V54L1225 55V56L1224 57L1223 56H1222L1221 57L1222 58H1223L1224 57H1225L1226 58V59L1228 62V64L1229 65V66L1231 69V71L1232 72V73L1234 76V78L1235 79V80L1236 81V82L1238 85V87L1239 88V89L1241 92V94L1242 95V96L1244 99V101L1245 102V103L1247 106V108L1248 109V110L1250 113V115L1251 116V117L1253 120V122L1254 123V124L1256 127V129L1257 130V131L1259 134V136L1260 137V138L1262 141V143L1263 144V145L1264 146V147L1266 150V152L1267 153V154L1269 157V159L1271 162V164L1272 165V166L1274 169V171L1275 172V174L1276 175V176L1278 178V179L1282 183H1283L1286 185H1288L1289 186H1294L1295 185H1297L1298 184H1299L1300 183H1301L1307 177V173L1308 172V167L1307 166V163L1306 162V161L1304 158V156L1303 155V154L1301 151V149L1300 148V147L1298 144V142L1297 141V140L1295 137V135L1294 134V133L1293 132V131L1291 128V126L1290 125V124L1288 121V119L1287 118V117L1285 114V112L1283 110V109L1282 108V106L1281 105V104L1279 101V99L1278 98V97L1276 94V92L1275 91V90L1273 87V85L1272 84V83L1270 80V78L1269 77V76L1267 73V71L1266 70V69L1265 68V67L1263 64V62L1262 61V60L1261 59V58L1260 57V56L1258 53V51L1257 50V49L1255 46V44L1254 43V42L1253 41V40L1251 37V35L1250 34V33L1248 30V28L1247 27V26L1246 25V24L1244 21V19L1242 17V15L1241 14V12L1239 10V9L1234 4H1233L1231 2Z" fill="url(#paint3_linear_135_50)"/>
<defs>
<linearGradient id="paint0_linear_135_50" x1="605" y1="-170" x2="1309" y2="-170" gradientUnits="userSpaceOnUse">
<stop stop-color="#115EFD"/>
<stop offset="0.10724" stop-color="#115EFD"/>
<stop offset="0.38068" stop-color="#2676FD"/>
<stop offset="0.62997" stop-color="#4199FE"/>
<stop offset="0.87642" stop-color="#4FAAFE"/>
<stop offset="1" stop-color="#4FAAFE"/>
</linearGradient>
<linearGradient id="paint1_linear_135_50" x1="605" y1="-170" x2="1309" y2="-170" gradientUnits="userSpaceOnUse">
<stop stop-color="#115EFD"/>
<stop offset="0.10724" stop-color="#115EFD"/>
<stop offset="0.38068" stop-color="#2676FD"/>
<stop offset="0.62997" stop-color="#4199FE"/>
<stop offset="0.87642" stop-color="#4FAAFE"/>
<stop offset="1" stop-color="#4FAAFE"/>
</linearGradient>
<linearGradient id="paint2_linear_135_50" x1="605" y1="-170" x2="1309" y2="-170" gradientUnits="userSpaceOnUse">
<stop stop-color="#115EFD"/>
<stop offset="0.10724" stop-color="#115EFD"/>
<stop offset="0.38068" stop-color="#2676FD"/>
<stop offset="0.62997" stop-color="#4199FE"/>
<stop offset="0.87642" stop-color="#4FAAFE"/>
<stop offset="1" stop-color="#4FAAFE"/>
</linearGradient>
<linearGradient id="paint3_linear_135_50" x1="605" y1="-170" x2="1309" y2="-170" gradientUnits="userSpaceOnUse">
<stop stop-color="#115EFD"/>
<stop offset="0.10724" stop-color="#115EFD"/>
<stop offset="0.38068" stop-color="#2676FD"/>
<stop offset="0.62997" stop-color="#4199FE"/>
<stop offset="0.87642" stop-color="#4FAAFE"/>
<stop offset="1" stop-color="#4FAAFE"/>
</linearGradient>
</defs>
</svg>
